<?xml version="1.0" encoding="utf-8"?>
<!-- Generator: Adobe Illustrator 15.1.0, SVG Export Plug-In . SVG Version: 6.00 Build 0)  -->
<!DOCTYPE svg PUBLIC "-//W3C//DTD SVG 1.1//EN" "http://www.w3.org/Graphics/SVG/1.1/DTD/svg11.dtd">
<svg version="1.1" id="Layer_1" xmlns="http://www.w3.org/2000/svg" xmlns:xlink="http://www.w3.org/1999/xlink" x="0px" y="0px"
	 width="151px" height="42px" viewBox="0 0 151 42" enable-background="new 0 0 151 42" xml:space="preserve">
<circle fill="#FB6200" cx="-927" cy="31.6" r="3"/>
<path fill="#FB6200" d="M-990.8,57l-1.7-5.6h-9.9l-1.7,5.6h-5.3l8.5-26.8h7.1l8.4,26.8H-990.8z M-997.5,34.4l-3.8,12.7h7.4
	L-997.5,34.4z"/>
<path fill="#FB6200" d="M-966.2,43.8v6.7c0,4.6-2.2,6.9-6.5,6.9c-1.7,0-3.5-0.2-5.2-0.5v11h-4.9V37.4h3.9l0.5,1.7
	c1.9-1.4,4-2.1,6.2-2.1c2,0,3.5,0.6,4.5,1.7C-966.7,39.9-966.2,41.5-966.2,43.8z M-977.9,42.9v9.8c1.6,0.3,3.1,0.5,4.3,0.5
	c0.9,0,1.5-0.2,1.9-0.6c0.4-0.4,0.6-1.1,0.6-2v-6.9c0-0.8-0.2-1.5-0.5-1.9c-0.4-0.4-1-0.6-1.9-0.6c-0.8,0-1.6,0.2-2.4,0.5
	C-976.7,42-977.3,42.4-977.9,42.9z"/>
<path fill="#FB6200" d="M-945.9,43.8v6.7c0,4.6-2.2,6.9-6.5,6.9c-1.7,0-3.5-0.2-5.2-0.5v11h-4.9V37.4h3.9l0.5,1.7
	c1.9-1.4,4-2.1,6.2-2.1c2,0,3.5,0.6,4.5,1.7C-946.4,39.9-945.9,41.5-945.9,43.8z M-957.6,42.9v9.8c1.6,0.3,3.1,0.5,4.3,0.5
	c0.9,0,1.5-0.2,1.9-0.6c0.4-0.4,0.6-1.1,0.6-2v-6.9c0-0.8-0.2-1.5-0.5-1.9c-0.4-0.4-1-0.6-1.9-0.6c-0.8,0-1.6,0.2-2.4,0.5
	C-956.4,42-957,42.4-957.6,42.9z"/>
<path fill="#FB6200" d="M-932.5,37l0.5,4.5c-1.6,0.7-3.3,1.7-5.2,2.8V57h-4.9V37.4h4.1l0.3,2.2c0.7-0.5,1.5-1,2.5-1.5
	C-934.2,37.6-933.3,37.2-932.5,37z"/>
<path fill="#FB6200" d="M-924.4,57h-4.9V37.4h4.9V57z"/>
<path fill="#FB6200" d="M-915,57h-4.9V29.4l4.9-0.7V57z M-908.8,37.4h5.5l-5.8,9.7l6,9.9h-5.4l-5.9-9.9L-908.8,37.4z"/>
<path fill="#FB6200" d="M-870.1,37l0.5,4.5c-1.6,0.7-3.3,1.7-5.2,2.8V57h-4.9V37.4h4.1l0.3,2.2c0.7-0.5,1.5-1,2.5-1.5
	C-871.8,37.6-870.9,37.2-870.1,37z"/>
<path fill="#FB6200" d="M-856.5,52.9l0.6,3.8c-0.5,0.2-1.2,0.4-2,0.5s-1.6,0.2-2.3,0.2c-3.6,0-5.4-1.7-5.4-5.2V41.3h-2.9v-3.9h2.9
	v-4.9l4.9-0.7v5.6h5l-0.3,3.9h-4.7v10.3c0,1.2,0.6,1.7,1.8,1.7C-858.3,53.3-857.5,53.2-856.5,52.9z"/>
<g id="g16523" transform="matrix(2.7633305e-2,0,0,-2.7633305e-2,46.06077,38.939293)">
	<path id="path16525" fill="#3F3F3F" d="M-33790.6,36.7h124.8l-75.6-339.8c-14.7-64.6-24.7-104.2-30.1-118.9
		c19.6-90,47.9-135.1,85.1-135.1c44.1,0,66.8,30.3,68.3,91h26.4c-1.5-56.8-11.9-102.6-31.2-137.6c-19.3-35-44.7-52.5-76-52.5
		c-25.9,0-45.3,10.5-58,31.6c-12.8,21-26.4,64.1-41.1,129.2c-50.9-107.2-134.1-160.7-249.6-160.7c-78.8,0-141.4,30.7-187.9,92.1
		c-46.5,61.4-69.8,149.4-69.8,263.9c0,112.6,25.4,200.1,76.3,262.8c50.9,62.6,112,94,183.5,94c50.4,0,91.7-17.9,124-53.6
		c32.3-35.7,60.9-94,85.9-174.7L-33790.6,36.7z M-33855.2-251c-23,78.8-48.7,140.3-77.1,184.6c-28.3,44.3-62.4,66.4-102,66.4
		c-89.6,0-134.3-104.7-134.3-314.1c0-198.7,42.9-298,128.5-298c74.4,0,129.4,87.6,165.1,262.8L-33855.2-251z"/>
</g>
<text transform="matrix(1 0 0 1 -956.001 67.8955)" fill="#3F3F3F" font-family="'Roboto-Regular'" font-size="7.5881" letter-spacing="1">digital solutions</text>
<g>
	<circle fill="#FFFFFF" cx="-601.1" cy="13.2" r="4.8"/>
	<path fill="#FFFFFF" d="M-702,53.4l-2.7-8.8h-15.7l-2.7,8.8h-8.4l13.4-42.4h11.2l13.3,42.4H-702z M-712.5,17.6l-6,20h11.7
		L-712.5,17.6z"/>
	<path fill="#FFFFFF" d="M-663.1,32.5v10.5c0,7.3-3.4,10.9-10.2,10.9c-2.7,0-5.5-0.3-8.3-0.8v17.4h-7.8V22.4h6.2l0.8,2.6
		c3-2.2,6.3-3.3,9.8-3.3c3.1,0,5.5,0.9,7.1,2.7C-663.9,26.3-663.1,29-663.1,32.5z M-681.5,31.2v15.4c2.5,0.5,4.8,0.8,6.9,0.8
		c1.4,0,2.4-0.3,3-1c0.6-0.7,0.9-1.7,0.9-3.1V32.3c0-1.3-0.3-2.3-0.9-3c-0.6-0.6-1.6-1-2.9-1c-1.2,0-2.5,0.3-3.7,0.8
		C-679.6,29.7-680.7,30.4-681.5,31.2z"/>
	<path fill="#FFFFFF" d="M-631,32.5v10.5c0,7.3-3.4,10.9-10.2,10.9c-2.7,0-5.5-0.3-8.3-0.8v17.4h-7.8V22.4h6.2l0.8,2.6
		c3-2.2,6.3-3.3,9.8-3.3c3.1,0,5.5,0.9,7.1,2.7C-631.8,26.3-631,29-631,32.5z M-649.5,31.2v15.4c2.5,0.5,4.8,0.8,6.9,0.8
		c1.4,0,2.4-0.3,3-1c0.6-0.7,0.9-1.7,0.9-3.1V32.3c0-1.3-0.3-2.3-0.9-3c-0.6-0.6-1.6-1-2.9-1c-1.2,0-2.5,0.3-3.7,0.8
		C-647.5,29.7-648.6,30.4-649.5,31.2z"/>
	<path fill="#FFFFFF" d="M-609.9,21.8l0.7,7.1c-2.5,1.1-5.2,2.6-8.2,4.5v20h-7.8v-31h6.5l0.5,3.4c1.1-0.7,2.4-1.5,4-2.3
		C-612.6,22.7-611.2,22.1-609.9,21.8z"/>
	<path fill="#FFFFFF" d="M-597.1,53.4h-7.8v-31h7.8V53.4z"/>
	<path fill="#FFFFFF" d="M-582.3,53.4h-7.8V9.7l7.8-1.1V53.4z M-572.4,22.4h8.6l-9.1,15.3l9.5,15.6h-8.5l-9.3-15.6L-572.4,22.4z"/>
	<path fill="#FFFFFF" d="M-511.3,21.8l0.7,7.1c-2.5,1.1-5.2,2.6-8.2,4.5v20h-7.8v-31h6.5l0.5,3.4c1.1-0.7,2.4-1.5,4-2.3
		C-514,22.7-512.6,22.1-511.3,21.8z"/>
	<path fill="#FFFFFF" d="M-489.8,46.9l0.9,5.9c-0.8,0.3-1.8,0.6-3.2,0.8c-1.3,0.2-2.5,0.3-3.6,0.3c-5.7,0-8.5-2.7-8.5-8.2V28.6h-4.6
		v-6.2h4.6v-7.7l7.8-1.1v8.8h7.9l-0.5,6.2h-7.4v16.2c0,1.8,0.9,2.8,2.8,2.8C-492.7,47.5-491.4,47.3-489.8,46.9z"/>
	<g id="g16523_1_" transform="matrix(2.7633305e-2,0,0,-2.7633305e-2,46.06077,38.939293)">
		<path id="path16525_1_" fill="#FFFFFF" d="M-21175,567.8h197.1l-119.3-536.7c-23.3-102-39.2-164.6-47.6-187.7
			c30.9-142.2,75.7-213.4,134.5-213.4c69.6,0,105.4,47.9,107.8,143.8h41.8c-2.4-89.7-18.8-162.1-49.3-217.3
			c-30.5-55.3-70.5-82.9-120-82.9c-40.9,0-71.5,16.6-91.5,49.8c-20.1,33.2-41.7,101.3-65,204c-80.3-169.2-211.7-253.8-394.1-253.8
			c-124.5,0-223.4,48.5-296.7,145.5c-73.5,97-110.2,235.9-110.2,416.7c0,177.8,40.2,316.1,120.5,415.1
			c80.5,99,177,148.4,289.9,148.4c79.6,0,144.9-28.3,195.8-84.7c51.1-56.4,96.2-148.4,135.7-275.9L-21175,567.8z M-21277,113.3
			c-36.3,124.4-76.9,221.6-121.8,291.6c-44.8,70-98.5,104.9-161.2,104.9c-141.4,0-212.1-165.4-212.1-496.2
			c0-313.8,67.7-470.6,202.9-470.6c117.4,0,204.4,138.3,260.8,415L-21277,113.3z"/>
	</g>
	<g>
		<path fill="#FFFFFF" d="M-646,70.6v-8.5h2.7c1.1,0,2,0.3,2.7,1c0.7,0.7,1,1.6,1,2.7v1.2c0,1.1-0.3,2-1,2.7c-0.7,0.7-1.6,1-2.7,1
			H-646z M-644.8,63v6.7h1.5c0.8,0,1.4-0.3,1.9-0.8c0.5-0.5,0.7-1.2,0.7-2v-1.2c0-0.8-0.2-1.5-0.7-2c-0.5-0.5-1.1-0.8-1.9-0.8
			H-644.8z"/>
		<path fill="#FFFFFF" d="M-633.5,70.6h-1.2v-8.5h1.2V70.6z"/>
		<path fill="#FFFFFF" d="M-622.2,69.4c-0.2,0.3-0.6,0.6-1.1,0.9c-0.5,0.3-1.2,0.4-2,0.4c-1,0-1.8-0.3-2.4-1s-1-1.5-1-2.5v-1.8
			c0-1,0.3-1.9,0.9-2.5s1.4-1,2.4-1c0.9,0,1.7,0.3,2.2,0.8c0.5,0.5,0.8,1.1,0.8,1.9l0,0h-1.1c0-0.5-0.2-1-0.5-1.3
			c-0.3-0.3-0.8-0.5-1.4-0.5c-0.7,0-1.2,0.2-1.6,0.7c-0.4,0.5-0.6,1.1-0.6,1.9v1.8c0,0.8,0.2,1.4,0.6,1.9c0.4,0.5,1,0.7,1.6,0.7
			c0.5,0,0.9-0.1,1.2-0.2c0.3-0.1,0.5-0.3,0.7-0.5v-1.9h-1.9v-0.9h3.1V69.4z"/>
		<path fill="#FFFFFF" d="M-615.9,70.6h-1.2v-8.5h1.2V70.6z"/>
		<path fill="#FFFFFF" d="M-605,63h-2.8v7.6h-1.2V63h-2.8v-0.9h6.7V63z"/>
		<path fill="#FFFFFF" d="M-596.8,68.4h-3.2l-0.8,2.2h-1.2l3.1-8.5h1l3,8.5h-1.2L-596.8,68.4z M-599.6,67.4h2.5l-1.2-3.7h0
			L-599.6,67.4z"/>
		<path fill="#FFFFFF" d="M-589.4,69.7h4.2v0.9h-5.3v-8.5h1.2V69.7z"/>
		<path fill="#FFFFFF" d="M-570.3,68.4c0-0.4-0.1-0.7-0.4-1c-0.3-0.3-0.8-0.5-1.5-0.7c-0.9-0.2-1.5-0.5-2-0.9
			c-0.5-0.4-0.7-0.9-0.7-1.6c0-0.7,0.3-1.2,0.8-1.7c0.5-0.4,1.2-0.7,2-0.7c0.9,0,1.6,0.3,2.1,0.8c0.5,0.5,0.8,1.1,0.8,1.8l0,0h-1.1
			c0-0.5-0.2-0.9-0.5-1.2c-0.3-0.3-0.8-0.5-1.3-0.5c-0.5,0-1,0.1-1.2,0.4c-0.3,0.3-0.4,0.6-0.4,1c0,0.4,0.2,0.7,0.5,0.9
			c0.3,0.2,0.8,0.5,1.5,0.7c0.9,0.2,1.5,0.6,2,1s0.7,1,0.7,1.6c0,0.7-0.3,1.2-0.8,1.7c-0.5,0.4-1.2,0.6-2.1,0.6
			c-0.8,0-1.5-0.2-2.2-0.7c-0.6-0.5-0.9-1.1-0.9-1.8l0,0h1.1c0,0.5,0.2,0.9,0.6,1.2c0.4,0.3,0.9,0.4,1.4,0.4c0.5,0,1-0.1,1.3-0.4
			C-570.5,69.2-570.3,68.9-570.3,68.4z"/>
		<path fill="#FFFFFF" d="M-558,67.1c0,1-0.3,1.9-1,2.6s-1.5,1-2.5,1c-1,0-1.8-0.3-2.4-1s-0.9-1.6-0.9-2.6v-1.5c0-1,0.3-1.9,0.9-2.6
			s1.4-1,2.4-1c1,0,1.9,0.3,2.5,1s1,1.6,1,2.6V67.1z M-559.1,65.6c0-0.8-0.2-1.4-0.6-1.9c-0.4-0.5-1-0.7-1.7-0.7
			c-0.7,0-1.2,0.2-1.6,0.7c-0.4,0.5-0.6,1.1-0.6,1.9v1.5c0,0.8,0.2,1.4,0.6,1.9c0.4,0.5,0.9,0.7,1.6,0.7c0.7,0,1.3-0.2,1.7-0.7
			c0.4-0.5,0.6-1.1,0.6-1.9V65.6z"/>
		<path fill="#FFFFFF" d="M-552.1,69.7h4.2v0.9h-5.3v-8.5h1.2V69.7z"/>
		<path fill="#FFFFFF" d="M-537.6,62.1v5.7c0,0.9-0.3,1.7-0.9,2.2c-0.6,0.5-1.4,0.8-2.4,0.8c-0.9,0-1.7-0.3-2.3-0.8
			c-0.6-0.5-0.9-1.3-0.9-2.2v-5.7h1.2v5.7c0,0.7,0.2,1.2,0.6,1.5c0.4,0.4,0.9,0.6,1.4,0.6c0.6,0,1.1-0.2,1.5-0.6
			c0.4-0.4,0.6-0.9,0.6-1.5v-5.7H-537.6z"/>
		<path fill="#FFFFFF" d="M-526.8,63h-2.8v7.6h-1.2V63h-2.8v-0.9h6.7V63z"/>
		<path fill="#FFFFFF" d="M-521.2,70.6h-1.2v-8.5h1.2V70.6z"/>
		<path fill="#FFFFFF" d="M-509.6,67.1c0,1-0.3,1.9-1,2.6s-1.5,1-2.5,1c-1,0-1.8-0.3-2.4-1s-0.9-1.6-0.9-2.6v-1.5
			c0-1,0.3-1.9,0.9-2.6s1.4-1,2.4-1c1,0,1.9,0.3,2.5,1s1,1.6,1,2.6V67.1z M-510.7,65.6c0-0.8-0.2-1.4-0.6-1.9
			c-0.4-0.5-1-0.7-1.7-0.7c-0.7,0-1.2,0.2-1.6,0.7c-0.4,0.5-0.6,1.1-0.6,1.9v1.5c0,0.8,0.2,1.4,0.6,1.9c0.4,0.5,0.9,0.7,1.6,0.7
			c0.7,0,1.3-0.2,1.7-0.7c0.4-0.5,0.6-1.1,0.6-1.9V65.6z"/>
		<path fill="#FFFFFF" d="M-498.4,70.6h-1.2l-4.1-6.5l0,0v6.5h-1.2v-8.5h1.2l4.1,6.5l0,0v-6.5h1.2V70.6z"/>
		<path fill="#FFFFFF" d="M-488.8,68.4c0-0.4-0.1-0.7-0.4-1c-0.3-0.3-0.8-0.5-1.5-0.7c-0.9-0.2-1.5-0.5-2-0.9
			c-0.5-0.4-0.7-0.9-0.7-1.6c0-0.7,0.3-1.2,0.8-1.7c0.5-0.4,1.2-0.7,2-0.7c0.9,0,1.6,0.3,2.1,0.8c0.5,0.5,0.8,1.1,0.8,1.8l0,0h-1.1
			c0-0.5-0.2-0.9-0.5-1.2c-0.3-0.3-0.8-0.5-1.3-0.5c-0.5,0-1,0.1-1.2,0.4c-0.3,0.3-0.4,0.6-0.4,1c0,0.4,0.2,0.7,0.5,0.9
			c0.3,0.2,0.8,0.5,1.5,0.7c0.9,0.2,1.5,0.6,2,1s0.7,1,0.7,1.6c0,0.7-0.3,1.2-0.8,1.7c-0.5,0.4-1.2,0.6-2.1,0.6
			c-0.8,0-1.5-0.2-2.2-0.7c-0.6-0.5-0.9-1.1-0.9-1.8l0,0h1.1c0,0.5,0.2,0.9,0.6,1.2c0.4,0.3,0.9,0.4,1.4,0.4c0.5,0,1-0.1,1.3-0.4
			C-489,69.2-488.8,68.9-488.8,68.4z"/>
	</g>
</g>
<g>
	<circle fill="#FB6200" cx="-263.2" cy="7.8" r="6.4"/>
	<path fill="#FB6200" d="M-398.1,61.5l-3.6-11.8h-21l-3.6,11.8h-11.2l17.9-56.7h15l17.8,56.7H-398.1z M-412.1,13.7l-8,26.8h15.7
		L-412.1,13.7z"/>
	<path fill="#FB6200" d="M-346,33.6v14.1c0,9.7-4.6,14.6-13.7,14.6c-3.6,0-7.3-0.4-11.1-1.1v23.3h-10.4V20.1h8.3l1,3.5
		c4.1-2.9,8.4-4.4,13.1-4.4c4.2,0,7.4,1.2,9.5,3.6C-347.1,25.3-346,28.9-346,33.6z M-370.8,31.8v20.6c3.4,0.7,6.5,1.1,9.2,1.1
		c1.8,0,3.2-0.4,4-1.3c0.8-0.9,1.2-2.3,1.2-4.2V33.3c0-1.8-0.4-3.1-1.2-4c-0.8-0.9-2.1-1.3-3.9-1.3c-1.6,0-3.3,0.4-5,1.1
		C-368.2,29.9-369.6,30.7-370.8,31.8z"/>
	<path fill="#FB6200" d="M-303.1,33.6v14.1c0,9.7-4.6,14.6-13.7,14.6c-3.6,0-7.3-0.4-11.1-1.1v23.3h-10.4V20.1h8.3l1,3.5
		c4.1-2.9,8.4-4.4,13.1-4.4c4.2,0,7.4,1.2,9.5,3.6C-304.2,25.3-303.1,28.9-303.1,33.6z M-327.8,31.8v20.6c3.4,0.7,6.5,1.1,9.2,1.1
		c1.8,0,3.1-0.4,4-1.3c0.8-0.9,1.2-2.3,1.2-4.2V33.3c0-1.8-0.4-3.1-1.2-4c-0.8-0.9-2.1-1.3-3.9-1.3c-1.6,0-3.3,0.4-5,1.1
		C-325.3,29.9-326.7,30.7-327.8,31.8z"/>
	<path fill="#FB6200" d="M-275,19.2l1,9.6c-3.3,1.5-6.9,3.5-10.9,6v26.7h-10.4V20.1h8.7l0.7,4.6c1.5-1,3.2-2,5.3-3.1
		C-278.5,20.5-276.6,19.7-275,19.2z"/>
	<path fill="#FB6200" d="M-257.9,61.5h-10.4V20.1h10.4V61.5z"/>
	<path fill="#FB6200" d="M-238,61.5h-10.4V3.2l10.4-1.5V61.5z M-224.7,20.1h11.5l-12.2,20.5l12.7,20.9H-224l-12.5-20.9L-224.7,20.1z
		"/>
	<path fill="#FB6200" d="M-143.1,19.2l1,9.6c-3.3,1.5-6.9,3.5-10.9,6v26.7h-10.4V20.1h8.7l0.7,4.6c1.5-1,3.2-2,5.3-3.1
		C-146.6,20.5-144.7,19.7-143.1,19.2z"/>
	<path fill="#FB6200" d="M-114.3,52.8l1.2,8c-1,0.4-2.5,0.8-4.3,1.1c-1.8,0.3-3.4,0.5-4.8,0.5c-7.6,0-11.4-3.7-11.4-11V28.3h-6.2
		v-8.2h6.2V9.8l10.4-1.4v11.8h10.6l-0.7,8.2h-10V50c0,2.5,1.2,3.7,3.7,3.7C-118.1,53.7-116.4,53.4-114.3,52.8z"/>
	<g id="g16523_2_" transform="matrix(2.7633305e-2,0,0,-2.7633305e-2,46.06077,38.939293)">
		<path id="path16525_2_" fill="#3F3F3F" d="M-8187,640.7h263.6l-159.5-717.9c-31.1-136.5-52.4-220.2-63.8-251.1
			c41.4-190.4,101.3-285.5,179.9-285.5c93.1,0,141,64.1,144.3,192.4h55.9c-3.2-120-25.2-216.9-66-290.8
			c-40.9-74-94.3-110.9-160.5-110.9c-54.7,0-95.7,22.3-122.5,66.7c-26.9,44.4-55.8,135.5-87,272.9
			c-107.4-226.2-283.1-339.5-527.2-339.5c-166.5,0-298.8,64.8-396.9,194.6C-9224.9-498.9-9274-313-9274-71.1
			c0,237.8,53.8,422.8,161.3,555.2c107.6,132.4,236.8,198.5,387.8,198.5c106.4,0,193.8-37.8,261.9-113.2
			c68.3-75.4,128.7-198.5,181.5-369L-8187,640.7z M-8323.4,32.8c-48.6,166.4-102.9,296.5-162.9,390
			c-59.9,93.6-131.7,140.4-215.6,140.4c-189.2,0-283.7-221.2-283.7-663.7c0-419.9,90.5-629.7,271.4-629.7
			c157.1,0,273.4,185,348.8,555.2L-8323.4,32.8z"/>
	</g>
	<g>
		<path fill="#3F3F3F" d="M-323.2,84.5V73.2h3.6c1.5,0,2.7,0.5,3.6,1.4c0.9,0.9,1.4,2.1,1.4,3.5v1.6c0,1.5-0.5,2.6-1.4,3.5
			c-0.9,0.9-2.1,1.4-3.6,1.4H-323.2z M-321.7,74.4v9h2c1.1,0,1.9-0.3,2.5-1c0.6-0.7,0.9-1.6,0.9-2.7v-1.6c0-1.1-0.3-2-0.9-2.7
			c-0.6-0.7-1.4-1-2.5-1H-321.7z"/>
		<path fill="#3F3F3F" d="M-306.5,84.5h-1.5V73.2h1.5V84.5z"/>
		<path fill="#3F3F3F" d="M-291.4,83c-0.3,0.4-0.7,0.8-1.4,1.2c-0.7,0.4-1.5,0.5-2.6,0.5c-1.3,0-2.4-0.4-3.3-1.3
			c-0.9-0.9-1.3-2-1.3-3.4v-2.3c0-1.4,0.4-2.5,1.2-3.4c0.8-0.9,1.9-1.3,3.2-1.3c1.3,0,2.3,0.3,3,1c0.7,0.7,1.1,1.5,1.1,2.6l0,0h-1.5
			c0-0.7-0.2-1.3-0.7-1.7c-0.4-0.5-1.1-0.7-1.9-0.7c-0.9,0-1.6,0.3-2.1,1c-0.5,0.7-0.8,1.5-0.8,2.5V80c0,1,0.3,1.8,0.8,2.5
			c0.6,0.7,1.3,1,2.2,1c0.7,0,1.2-0.1,1.6-0.3c0.4-0.2,0.7-0.4,0.9-0.6v-2.6h-2.6v-1.2h4.1V83z"/>
		<path fill="#3F3F3F" d="M-283,84.5h-1.5V73.2h1.5V84.5z"/>
		<path fill="#3F3F3F" d="M-268.3,74.4h-3.8v10.2h-1.5V74.4h-3.7v-1.2h9V74.4z"/>
		<path fill="#3F3F3F" d="M-257.3,81.6h-4.3l-1,2.9h-1.6l4.1-11.4h1.3l4,11.4h-1.6L-257.3,81.6z M-261.2,80.3h3.4l-1.7-4.9h0
			L-261.2,80.3z"/>
		<path fill="#3F3F3F" d="M-247.5,83.3h5.6v1.2h-7.1V73.2h1.5V83.3z"/>
		<path fill="#3F3F3F" d="M-222,81.7c0-0.5-0.2-1-0.6-1.3c-0.4-0.3-1-0.6-2-0.9c-1.2-0.3-2.1-0.7-2.7-1.3c-0.7-0.6-1-1.3-1-2.1
			c0-0.9,0.3-1.6,1-2.2c0.7-0.6,1.6-0.9,2.7-0.9c1.2,0,2.2,0.3,2.9,1c0.7,0.7,1.1,1.5,1,2.4l0,0h-1.5c0-0.6-0.2-1.2-0.7-1.6
			c-0.5-0.4-1-0.6-1.7-0.6c-0.7,0-1.3,0.2-1.7,0.5c-0.4,0.3-0.6,0.8-0.6,1.4c0,0.5,0.2,0.9,0.6,1.2c0.4,0.3,1.1,0.6,2,0.9
			c1.1,0.3,2,0.7,2.6,1.3c0.6,0.6,0.9,1.3,0.9,2.1c0,0.9-0.4,1.7-1.1,2.2c-0.7,0.6-1.7,0.8-2.8,0.8c-1.1,0-2.1-0.3-2.9-0.9
			c-0.8-0.6-1.3-1.4-1.2-2.5l0,0h1.5c0,0.7,0.3,1.3,0.8,1.7c0.5,0.4,1.2,0.6,1.8,0.6c0.7,0,1.3-0.2,1.7-0.5
			C-222.2,82.7-222,82.2-222,81.7z"/>
		<path fill="#3F3F3F" d="M-205.4,79.9c0,1.4-0.4,2.5-1.3,3.5c-0.9,0.9-2,1.4-3.4,1.4c-1.3,0-2.4-0.5-3.2-1.4
			c-0.8-0.9-1.2-2.1-1.2-3.5v-2c0-1.4,0.4-2.5,1.2-3.5c0.8-0.9,1.9-1.4,3.2-1.4c1.4,0,2.5,0.5,3.4,1.4c0.9,0.9,1.3,2.1,1.3,3.5V79.9
			z M-207,77.8c0-1-0.3-1.9-0.8-2.6c-0.6-0.7-1.3-1-2.3-1c-0.9,0-1.6,0.3-2.1,1c-0.5,0.7-0.8,1.5-0.8,2.6v2c0,1.1,0.3,1.9,0.8,2.6
			c0.5,0.7,1.3,1,2.1,1c1,0,1.7-0.3,2.3-1c0.6-0.7,0.8-1.5,0.8-2.6V77.8z"/>
		<path fill="#3F3F3F" d="M-197.6,83.3h5.6v1.2h-7.1V73.2h1.5V83.3z"/>
		<path fill="#3F3F3F" d="M-178.2,73.2v7.6c0,1.3-0.4,2.2-1.2,2.9c-0.8,0.7-1.9,1.1-3.1,1.1c-1.2,0-2.2-0.4-3-1.1
			c-0.8-0.7-1.2-1.7-1.2-2.9v-7.6h1.5v7.6c0,0.9,0.2,1.6,0.7,2c0.5,0.5,1.1,0.7,1.9,0.7c0.8,0,1.5-0.2,2-0.7c0.5-0.5,0.8-1.2,0.8-2
			v-7.6H-178.2z"/>
		<path fill="#3F3F3F" d="M-163.7,74.4h-3.8v10.2h-1.5V74.4h-3.7v-1.2h9V74.4z"/>
		<path fill="#3F3F3F" d="M-156.3,84.5h-1.5V73.2h1.5V84.5z"/>
		<path fill="#3F3F3F" d="M-140.7,79.9c0,1.4-0.4,2.5-1.3,3.5c-0.9,0.9-2,1.4-3.4,1.4c-1.3,0-2.4-0.5-3.2-1.4
			c-0.8-0.9-1.2-2.1-1.2-3.5v-2c0-1.4,0.4-2.5,1.2-3.5c0.8-0.9,1.9-1.4,3.2-1.4c1.4,0,2.5,0.5,3.4,1.4c0.9,0.9,1.3,2.1,1.3,3.5V79.9
			z M-142.2,77.8c0-1-0.3-1.9-0.8-2.6c-0.6-0.7-1.3-1-2.3-1c-0.9,0-1.6,0.3-2.1,1c-0.5,0.7-0.8,1.5-0.8,2.6v2c0,1.1,0.3,1.9,0.8,2.6
			c0.5,0.7,1.3,1,2.1,1c1,0,1.7-0.3,2.3-1c0.6-0.7,0.8-1.5,0.8-2.6V77.8z"/>
		<path fill="#3F3F3F" d="M-125.8,84.5h-1.5l-5.5-8.7l0,0v8.7h-1.5V73.2h1.5l5.5,8.7l0,0v-8.7h1.5V84.5z"/>
		<path fill="#3F3F3F" d="M-112.9,81.7c0-0.5-0.2-1-0.6-1.3c-0.4-0.3-1-0.6-2-0.9c-1.2-0.3-2.1-0.7-2.7-1.3c-0.7-0.6-1-1.3-1-2.1
			c0-0.9,0.3-1.6,1-2.2c0.7-0.6,1.6-0.9,2.7-0.9c1.2,0,2.2,0.3,2.9,1c0.7,0.7,1.1,1.5,1,2.4l0,0h-1.5c0-0.6-0.2-1.2-0.7-1.6
			s-1-0.6-1.7-0.6c-0.7,0-1.3,0.2-1.7,0.5c-0.4,0.3-0.6,0.8-0.6,1.4c0,0.5,0.2,0.9,0.6,1.2c0.4,0.3,1.1,0.6,2,0.9
			c1.1,0.3,2,0.7,2.6,1.3c0.6,0.6,0.9,1.3,0.9,2.1c0,0.9-0.4,1.7-1.1,2.2c-0.7,0.6-1.7,0.8-2.8,0.8c-1.1,0-2.1-0.3-2.9-0.9
			c-0.8-0.6-1.3-1.4-1.2-2.5l0,0h1.5c0,0.7,0.3,1.3,0.8,1.7c0.5,0.4,1.2,0.6,1.8,0.6c0.7,0,1.3-0.2,1.7-0.5
			C-113.2,82.7-112.9,82.2-112.9,81.7z"/>
	</g>
</g>
<g>
	<circle fill="#FB6200" cx="80.6" cy="4.3" r="2.9"/>
	<path fill="#FB6200" d="M19,28.9l-1.7-5.4H7.7l-1.6,5.4H0.9L9.1,3H16l8.1,25.9H19z M12.5,7L8.9,19.3h7.2L12.5,7z"/>
	<path fill="#FB6200" d="M42.7,16.1v6.4c0,4.5-2.1,6.7-6.2,6.7c-1.6,0-3.3-0.2-5-0.5v10.6h-4.7V9.9h3.8l0.5,1.6c1.9-1.3,3.8-2,6-2
		c1.9,0,3.4,0.6,4.3,1.7C42.2,12.3,42.7,14,42.7,16.1z M31.4,15.3v9.4c1.6,0.3,2.9,0.5,4.2,0.5c0.8,0,1.4-0.2,1.8-0.6
		c0.4-0.4,0.6-1,0.6-1.9V16c0-0.8-0.2-1.4-0.5-1.8c-0.4-0.4-1-0.6-1.8-0.6c-0.8,0-1.5,0.2-2.3,0.5C32.6,14.4,32,14.8,31.4,15.3z"/>
	<path fill="#FB6200" d="M62.3,16.1v6.4c0,4.5-2.1,6.7-6.2,6.7c-1.6,0-3.3-0.2-5-0.5v10.6h-4.7V9.9h3.8l0.5,1.6c1.8-1.3,3.8-2,6-2
		c1.9,0,3.4,0.6,4.3,1.7C61.8,12.3,62.3,14,62.3,16.1z M51,15.3v9.4c1.6,0.3,2.9,0.5,4.2,0.5c0.8,0,1.4-0.2,1.8-0.6
		c0.4-0.4,0.6-1,0.6-1.9V16c0-0.8-0.2-1.4-0.5-1.8c-0.4-0.4-1-0.6-1.8-0.6c-0.8,0-1.5,0.2-2.3,0.5C52.2,14.4,51.6,14.8,51,15.3z"/>
	<path fill="#FB6200" d="M75.2,9.5l0.4,4.4c-1.5,0.7-3.2,1.6-5,2.7v12.2h-4.7V9.9h4l0.3,2.1c0.7-0.5,1.5-0.9,2.4-1.4
		C73.6,10.1,74.4,9.8,75.2,9.5z"/>
	<path fill="#FB6200" d="M83,28.9h-4.7V9.9H83V28.9z"/>
	<path fill="#FB6200" d="M92.1,28.9h-4.7V2.2l4.7-0.7V28.9z M98.1,9.9h5.3l-5.6,9.4l5.8,9.6h-5.2l-5.7-9.6L98.1,9.9z"/>
	<path fill="#FB6200" d="M135.4,9.5l0.4,4.4c-1.5,0.7-3.2,1.6-5,2.7v12.2h-4.7V9.9h4l0.3,2.1c0.7-0.5,1.5-0.9,2.4-1.4
		C133.8,10.1,134.7,9.8,135.4,9.5z"/>
	<path fill="#FB6200" d="M148.6,24.9l0.5,3.6c-0.5,0.2-1.1,0.4-2,0.5c-0.8,0.1-1.6,0.2-2.2,0.2c-3.5,0-5.2-1.7-5.2-5V13.7h-2.8V9.9
		h2.8V5.2l4.7-0.7v5.4h4.8l-0.3,3.8h-4.5v9.9c0,1.1,0.6,1.7,1.7,1.7C146.8,25.3,147.6,25.2,148.6,24.9z"/>
	<g id="g16523_3_" transform="matrix(2.7633305e-2,0,0,-2.7633305e-2,46.06077,38.939293)">
		<path id="path16525_3_" fill="#3F3F3F" d="M2620.8,1030.6h120.4l-72.8-327.9c-14.2-62.3-24-100.5-29.1-114.7
			c18.9-87,46.3-130.4,82.1-130.4c42.5,0,64.4,29.3,65.9,87.9h25.6c-1.4-54.8-11.5-99.1-30.2-132.8c-18.6-33.8-43-50.6-73.3-50.6
			c-25,0-43.7,10.2-55.9,30.4c-12.3,20.3-25.5,61.9-39.7,124.6C2564.6,413.7,2484.4,362,2372.9,362c-76.1,0-136.4,29.6-181.3,88.9
			c-44.9,59.2-67.3,144.2-67.3,254.6c0,108.6,24.5,193.1,73.6,253.6c49.2,60.5,108.2,90.7,177.1,90.7c48.6,0,88.5-17.3,119.7-51.7
			c31.2-34.4,58.8-90.6,82.9-168.5L2620.8,1030.6z M2558.5,752.9c-22.2,76-47,135.4-74.4,178.1c-27.4,42.7-60.2,64.1-98.5,64.1
			c-86.4,0-129.6-101.1-129.6-303.1c0-191.8,41.3-287.6,123.9-287.6c71.7,0,124.9,84.5,159.4,253.5L2558.5,752.9z"/>
	</g>
	<g>
		<path fill="#3F3F3F" d="M53.2,39.4v-5.2h1.6c0.7,0,1.2,0.2,1.6,0.6c0.4,0.4,0.6,1,0.6,1.6v0.7c0,0.7-0.2,1.2-0.6,1.6
			c-0.4,0.4-1,0.6-1.6,0.6H53.2z M53.9,34.7v4.1h0.9c0.5,0,0.9-0.2,1.1-0.5c0.3-0.3,0.4-0.7,0.4-1.2v-0.7c0-0.5-0.1-0.9-0.4-1.2
			c-0.3-0.3-0.7-0.5-1.1-0.5H53.9z"/>
		<path fill="#3F3F3F" d="M60.8,39.4h-0.7v-5.2h0.7V39.4z"/>
		<path fill="#3F3F3F" d="M67.7,38.7c-0.1,0.2-0.3,0.4-0.6,0.5c-0.3,0.2-0.7,0.2-1.2,0.2c-0.6,0-1.1-0.2-1.5-0.6
			c-0.4-0.4-0.6-0.9-0.6-1.5v-1.1c0-0.6,0.2-1.1,0.6-1.5c0.4-0.4,0.9-0.6,1.5-0.6c0.6,0,1,0.2,1.4,0.5c0.3,0.3,0.5,0.7,0.5,1.2l0,0
			H67c0-0.3-0.1-0.6-0.3-0.8c-0.2-0.2-0.5-0.3-0.9-0.3c-0.4,0-0.7,0.1-1,0.4s-0.4,0.7-0.4,1.1v1.1c0,0.5,0.1,0.8,0.4,1.1
			c0.3,0.3,0.6,0.4,1,0.4c0.3,0,0.6,0,0.7-0.1c0.2-0.1,0.3-0.2,0.4-0.3v-1.2h-1.2v-0.6h1.9V38.7z"/>
		<path fill="#3F3F3F" d="M71.5,39.4h-0.7v-5.2h0.7V39.4z"/>
		<path fill="#3F3F3F" d="M78.2,34.7h-1.7v4.7h-0.7v-4.7h-1.7v-0.6h4.1V34.7z"/>
		<path fill="#3F3F3F" d="M83.2,38h-2l-0.5,1.3h-0.7l1.9-5.2h0.6l1.8,5.2h-0.7L83.2,38z M81.5,37.4H83l-0.8-2.2h0L81.5,37.4z"/>
		<path fill="#3F3F3F" d="M87.7,38.8h2.5v0.5H87v-5.2h0.7V38.8z"/>
		<path fill="#3F3F3F" d="M99.4,38.1c0-0.2-0.1-0.4-0.3-0.6s-0.5-0.3-0.9-0.4c-0.5-0.1-0.9-0.3-1.2-0.6c-0.3-0.3-0.4-0.6-0.4-1
			c0-0.4,0.2-0.7,0.5-1c0.3-0.3,0.7-0.4,1.2-0.4c0.5,0,1,0.2,1.3,0.5c0.3,0.3,0.5,0.7,0.5,1.1l0,0h-0.7c0-0.3-0.1-0.5-0.3-0.7
			c-0.2-0.2-0.5-0.3-0.8-0.3c-0.3,0-0.6,0.1-0.8,0.2c-0.2,0.2-0.3,0.4-0.3,0.6c0,0.2,0.1,0.4,0.3,0.6c0.2,0.2,0.5,0.3,0.9,0.4
			c0.5,0.1,0.9,0.3,1.2,0.6c0.3,0.3,0.4,0.6,0.4,1c0,0.4-0.2,0.8-0.5,1c-0.3,0.3-0.8,0.4-1.3,0.4c-0.5,0-0.9-0.1-1.3-0.4
			c-0.4-0.3-0.6-0.7-0.6-1.1l0,0h0.7c0,0.3,0.1,0.6,0.4,0.8c0.2,0.2,0.5,0.3,0.8,0.3c0.3,0,0.6-0.1,0.8-0.2
			C99.3,38.5,99.4,38.3,99.4,38.1z"/>
		<path fill="#3F3F3F" d="M106.9,37.2c0,0.6-0.2,1.2-0.6,1.6c-0.4,0.4-0.9,0.6-1.5,0.6c-0.6,0-1.1-0.2-1.5-0.6
			c-0.4-0.4-0.6-0.9-0.6-1.6v-0.9c0-0.6,0.2-1.2,0.6-1.6c0.4-0.4,0.9-0.6,1.5-0.6c0.6,0,1.1,0.2,1.5,0.6c0.4,0.4,0.6,0.9,0.6,1.6
			V37.2z M106.2,36.3c0-0.5-0.1-0.9-0.4-1.2c-0.3-0.3-0.6-0.5-1-0.5c-0.4,0-0.7,0.2-1,0.5c-0.2,0.3-0.4,0.7-0.4,1.2v0.9
			c0,0.5,0.1,0.9,0.4,1.2c0.2,0.3,0.6,0.5,1,0.5c0.4,0,0.8-0.2,1-0.5c0.3-0.3,0.4-0.7,0.4-1.2V36.3z"/>
		<path fill="#3F3F3F" d="M110.5,38.8h2.5v0.5h-3.2v-5.2h0.7V38.8z"/>
		<path fill="#3F3F3F" d="M119.4,34.2v3.5c0,0.6-0.2,1-0.6,1.3c-0.4,0.3-0.9,0.5-1.4,0.5c-0.6,0-1-0.2-1.4-0.5
			c-0.4-0.3-0.5-0.8-0.5-1.3v-3.5h0.7v3.5c0,0.4,0.1,0.7,0.3,0.9c0.2,0.2,0.5,0.3,0.9,0.3c0.4,0,0.7-0.1,0.9-0.3
			c0.2-0.2,0.4-0.5,0.4-0.9v-3.5H119.4z"/>
		<path fill="#3F3F3F" d="M126,34.7h-1.7v4.7h-0.7v-4.7h-1.7v-0.6h4.1V34.7z"/>
		<path fill="#3F3F3F" d="M129.4,39.4h-0.7v-5.2h0.7V39.4z"/>
		<path fill="#3F3F3F" d="M136.5,37.2c0,0.6-0.2,1.2-0.6,1.6c-0.4,0.4-0.9,0.6-1.5,0.6c-0.6,0-1.1-0.2-1.5-0.6
			c-0.4-0.4-0.6-0.9-0.6-1.6v-0.9c0-0.6,0.2-1.2,0.6-1.6c0.4-0.4,0.9-0.6,1.5-0.6c0.6,0,1.1,0.2,1.5,0.6c0.4,0.4,0.6,0.9,0.6,1.6
			V37.2z M135.8,36.3c0-0.5-0.1-0.9-0.4-1.2c-0.3-0.3-0.6-0.5-1-0.5c-0.4,0-0.7,0.2-1,0.5c-0.2,0.3-0.4,0.7-0.4,1.2v0.9
			c0,0.5,0.1,0.9,0.4,1.2c0.2,0.3,0.6,0.5,1,0.5c0.4,0,0.8-0.2,1-0.5c0.3-0.3,0.4-0.7,0.4-1.2V36.3z"/>
		<path fill="#3F3F3F" d="M143.3,39.4h-0.7l-2.5-4l0,0v4h-0.7v-5.2h0.7l2.5,4l0,0v-4h0.7V39.4z"/>
		<path fill="#3F3F3F" d="M149.2,38.1c0-0.2-0.1-0.4-0.3-0.6c-0.2-0.2-0.5-0.3-0.9-0.4c-0.5-0.1-0.9-0.3-1.2-0.6
			c-0.3-0.3-0.4-0.6-0.4-1c0-0.4,0.2-0.7,0.5-1c0.3-0.3,0.7-0.4,1.2-0.4c0.5,0,1,0.2,1.3,0.5c0.3,0.3,0.5,0.7,0.5,1.1l0,0h-0.7
			c0-0.3-0.1-0.5-0.3-0.7c-0.2-0.2-0.5-0.3-0.8-0.3c-0.3,0-0.6,0.1-0.8,0.2c-0.2,0.2-0.3,0.4-0.3,0.6c0,0.2,0.1,0.4,0.3,0.6
			c0.2,0.2,0.5,0.3,0.9,0.4c0.5,0.1,0.9,0.3,1.2,0.6c0.3,0.3,0.4,0.6,0.4,1c0,0.4-0.2,0.8-0.5,1c-0.3,0.3-0.8,0.4-1.3,0.4
			c-0.5,0-0.9-0.1-1.3-0.4c-0.4-0.3-0.6-0.7-0.6-1.1l0,0h0.7c0,0.3,0.1,0.6,0.4,0.8c0.2,0.2,0.5,0.3,0.8,0.3c0.3,0,0.6-0.1,0.8-0.2
			C149.1,38.5,149.2,38.3,149.2,38.1z"/>
	</g>
</g>
</svg>
