
  <svg xmlns="http://www.w3.org/2000/svg" height="16" width="16" fill="white" style="margin-right: 8px;" viewBox="0 0 24 24">
    <path d="M12 2C6.48 2 2 6.48 2 12s4.48 10 10 10
             10-4.48 10-10S17.52 2 12 2zm6.93 6H17.5c-.21-1.28-.71-2.45-1.43-3.46
             1.64.91 2.89 2.34 3.43 4.06zM12 4c1.3 1.24 2.14 3.07
             2.34 5H9.66C9.86 7.07 10.7 5.24 12 4zM4.07
             8c.54-1.72 1.79-3.15 3.43-4.06C6.79 5.55
             6.29 6.72 6.09 8H4.07zM4 12c0-.68.1-1.34.26-1.96H6.1c-.05.64-.1 1.3-.1
             1.96s.05 1.32.1 1.96H4.26C4.1 13.34 4 12.68 4 12zm.07
             4h2.02c.2 1.28.7 2.45 1.42 3.46-1.64-.91-2.89-2.34-3.44-4.06zM12
             20c-1.3-1.24-2.14-3.07-2.34-5h4.68C14.14
             16.93 13.3 18.76 12 20zm2.5-7h-5c-.05-.64-.1-1.3-.1-1.96s.05-1.32.1-1.96h5c.05.64.1 1.3.1
             1.96s-.05 1.32-.1 1.96zm1.91 7.46c.73-1.01 1.23-2.18 1.43-3.46h2.02c-.54
             1.72-1.79 3.15-3.45 4.06zM17.9 14c.05-.64.1-1.3.1-1.96s-.05-1.32-.1-1.96h1.84c.16.62.26
             1.28.26 1.96s-.1 1.34-.26 1.96H17.9z"/>
  </svg>
 

